<svg width="17" height="17" viewBox="0 0 19 19" fill="none" xmlns="http://www.w3.org/2000/svg">
<path d="M4.14005 4.42146H16.6916C17.3507 4.42146 17.8296 5.04797 17.6565 5.68396L16.9778 8.17874C16.6225 9.48483 15.4366 10.3912 14.0831 10.3912H5.24054M0 1H2.00252C2.97824 1 3.81154 1.70406 3.97445 2.66608L5.47496 11.5273C5.63787 12.4893 6.47118 13.1934 7.44689 13.1934H16.3759" stroke="black" stroke-width="1.5"/>
<path d="M8.84137 16.6992C8.84137 17.1897 8.42828 17.6193 7.87882 17.6193C7.32936 17.6193 6.91626 17.1897 6.91626 16.6992C6.91626 16.2086 7.32936 15.7791 7.87882 15.7791C8.42828 15.7791 8.84137 16.2086 8.84137 16.6992Z" stroke="black" stroke-width="1.5"/>
<path d="M16.3768 16.6992C16.3768 17.1897 15.9637 17.6193 15.4142 17.6193C14.8648 17.6193 14.4517 17.1897 14.4517 16.6992C14.4517 16.2086 14.8648 15.7791 15.4142 15.7791C15.9637 15.7791 16.3768 16.2086 16.3768 16.6992Z" stroke="black" stroke-width="1.5"/>
</svg>
